# xmcd
#
# Track frame offsets: 
#        150
#        23062
#        48020
#        95965
#        128700
#        142947
#        157477
#        189365
#        220164
#        245897
#        284582
#        309570
#
# Disc length: 4798 seconds
#
# Revision: 2
# Processed by: cddbd v1.5.2PL0 Copyright (c) Steve Scherf et al.
# Submitted via: ExactAudioCopy v1.3
#
DISCID=b412bc0c
DTITLE=Various Artist - THIS IS JAZZ THE BEST and THE GREATEST2 [Disc 1]
DYEAR=2012
DGENRE=Jazz
TTITLE0=CANNONBALL ADDERLEY - Work Song
TTITLE1=HERBIE HANCOCK - Cantaloupe Island
TTITLE2=JOHN COLTRANE - Blue Train
TTITLE3=HORACE SILVER - Song For My Father
TTITLE4=THELONIOUS MONK - 'Round Midnight
TTITLE5=CLIFFORD BROWN - Joy Spring
TTITLE6=LEE MORGAN - I Remember Clifford
TTITLE7=LOU DONALDSON - Alligator Bagaloo
TTITLE8=MILES DAVIS - Milestones
TTITLE9=HERBIE MANN - Comin' Home Baby
TTITLE10=THE MODERN JAZZ QUARTET - Djang
TTITLE11=ART BLAKEY AND THE JAZZ MESSENGERS - A Night In Tunisia
EXTD=YEAR: 2012
EXTT0=
EXTT1=
EXTT2=
EXTT3=
EXTT4=
EXTT5=
EXTT6=
EXTT7=
EXTT8=
EXTT9=
EXTT10=
EXTT11=
PLAYORDER=
